<mxfile host="app.diagrams.net" agent="Mozilla/5.0 (Macintosh; Intel Mac OS X 10_15_7) AppleWebKit/605.1.15 (KHTML, like Gecko) Version/18.3 Safari/605.1.15" version="26.0.6">
  <diagram name="Pagina-1" id="lIhmmz65j7t1qKId86zh">
    <mxGraphModel grid="1" page="1" gridSize="10" guides="1" tooltips="1" connect="1" arrows="1" fold="1" pageScale="1" pageWidth="827" pageHeight="1169" math="0" shadow="0">
      <root>
        <mxCell id="0" />
        <mxCell id="1" parent="0" />
        <mxCell id="diy0ZKSvhuuQfwbQLDUv-3" style="edgeStyle=orthogonalEdgeStyle;rounded=0;orthogonalLoop=1;jettySize=auto;html=1;entryX=0.5;entryY=0;entryDx=0;entryDy=0;" edge="1" parent="1" source="diy0ZKSvhuuQfwbQLDUv-1" target="diy0ZKSvhuuQfwbQLDUv-2">
          <mxGeometry relative="1" as="geometry" />
        </mxCell>
        <mxCell id="diy0ZKSvhuuQfwbQLDUv-1" value="" style="ellipse;whiteSpace=wrap;html=1;aspect=fixed;" vertex="1" parent="1">
          <mxGeometry x="374" y="110" width="80" height="80" as="geometry" />
        </mxCell>
        <mxCell id="diy0ZKSvhuuQfwbQLDUv-5" style="edgeStyle=orthogonalEdgeStyle;rounded=0;orthogonalLoop=1;jettySize=auto;html=1;entryX=0.5;entryY=0;entryDx=0;entryDy=0;" edge="1" parent="1" source="diy0ZKSvhuuQfwbQLDUv-2" target="diy0ZKSvhuuQfwbQLDUv-4">
          <mxGeometry relative="1" as="geometry" />
        </mxCell>
        <mxCell id="diy0ZKSvhuuQfwbQLDUv-2" value="X = 5" style="shape=hexagon;perimeter=hexagonPerimeter2;whiteSpace=wrap;html=1;fixedSize=1;" vertex="1" parent="1">
          <mxGeometry x="354" y="260" width="120" height="80" as="geometry" />
        </mxCell>
        <mxCell id="diy0ZKSvhuuQfwbQLDUv-14" value="" style="edgeStyle=orthogonalEdgeStyle;rounded=0;orthogonalLoop=1;jettySize=auto;html=1;" edge="1" parent="1" source="diy0ZKSvhuuQfwbQLDUv-4" target="diy0ZKSvhuuQfwbQLDUv-7">
          <mxGeometry relative="1" as="geometry" />
        </mxCell>
        <mxCell id="diy0ZKSvhuuQfwbQLDUv-4" value="X = X + 10" style="rounded=0;whiteSpace=wrap;html=1;" vertex="1" parent="1">
          <mxGeometry x="354" y="430" width="120" height="60" as="geometry" />
        </mxCell>
        <mxCell id="diy0ZKSvhuuQfwbQLDUv-16" value="" style="edgeStyle=orthogonalEdgeStyle;rounded=0;orthogonalLoop=1;jettySize=auto;html=1;" edge="1" parent="1" source="diy0ZKSvhuuQfwbQLDUv-7" target="diy0ZKSvhuuQfwbQLDUv-15">
          <mxGeometry relative="1" as="geometry" />
        </mxCell>
        <mxCell id="diy0ZKSvhuuQfwbQLDUv-7" value="X" style="shape=parallelogram;perimeter=parallelogramPerimeter;whiteSpace=wrap;html=1;fixedSize=1;fillColor=#f8cecc;strokeColor=#b85450;" vertex="1" parent="1">
          <mxGeometry x="354" y="555" width="120" height="60" as="geometry" />
        </mxCell>
        <mxCell id="diy0ZKSvhuuQfwbQLDUv-10" value="o" style="text;html=1;align=center;verticalAlign=middle;resizable=0;points=[];autosize=1;strokeColor=none;fillColor=none;" vertex="1" parent="1">
          <mxGeometry x="470" y="530" width="30" height="30" as="geometry" />
        </mxCell>
        <mxCell id="diy0ZKSvhuuQfwbQLDUv-15" value="" style="ellipse;whiteSpace=wrap;html=1;fillColor=#000000;" vertex="1" parent="1">
          <mxGeometry x="374" y="685" width="80" height="80" as="geometry" />
        </mxCell>
      </root>
    </mxGraphModel>
  </diagram>
</mxfile>
